<svg width="0" height="0" class="hidden">
    <symbol fill="none" xmlns="http://www.w3.org/2000/svg" viewBox="0 0 18 16" id="burgerIcon">
        <path fill-rule="evenodd" clip-rule="evenodd" d="M0 1.35713C0 0.745678 0.495678 0.25 1.10713 0.25H16.6069C17.2184 0.25 17.714 0.745678 17.714 1.35713C17.714 1.96858 17.2184 2.46426 16.6069 2.46426H1.10713C0.495678 2.46426 0 1.96858 0 1.35713ZM0 7.99993C0 7.38848 0.495678 6.8928 1.10713 6.8928H16.6069C17.2184 6.8928 17.714 7.38848 17.714 7.99993C17.714 8.61138 17.2184 9.10705 16.6069 9.10705H1.10713C0.495678 9.10705 0 8.61138 0 7.99993ZM13.2855 14.6426C13.2855 14.0312 12.7899 13.5355 12.1784 13.5355H1.10713C0.495678 13.5355 0 14.0312 0 14.6426C0 15.2541 0.495679 15.7498 1.10713 15.7498H12.1784C12.7899 15.7498 13.2855 15.2541 13.2855 14.6426Z" fill="white"></path>
    </symbol>
    <symbol  xmlns="http://www.w3.org/2000/svg" viewBox="0 0 17 17" id="settings">
        <path d="M13.1875 5.95C13.6362 5.95 14 6.33056 14 6.8L14 16.15C14 16.6194 13.6362 17 13.1875 17C12.7388 17 12.375 16.6194 12.375 16.15L12.375 6.8C12.375 6.33056 12.7388 5.95 13.1875 5.95Z" ></path>
        <path d="M13.1875 5.74268e-08C13.6362 7.79467e-08 14 0.380558 14 0.85V3.4C14 3.86944 13.6362 4.25 13.1875 4.25C12.7388 4.25 12.375 3.86944 12.375 3.4V0.85C12.375 0.380558 12.7388 3.69068e-08 13.1875 5.74268e-08Z" ></path>
        <path d="M8.3125 0.85C8.3125 0.380558 7.94873 2.052e-08 7.5 0C7.05127 -2.05199e-08 6.6875 0.380558 6.6875 0.85L6.6875 10.2C6.6875 10.6694 7.05127 11.05 7.5 11.05C7.94873 11.05 8.3125 10.6694 8.3125 10.2L8.3125 0.85Z" ></path>
        <path d="M8.3125 13.6C8.3125 13.1306 7.94873 12.75 7.5 12.75C7.05127 12.75 6.6875 13.1306 6.6875 13.6V16.15C6.6875 16.6194 7.05127 17 7.5 17C7.94873 17 8.3125 16.6194 8.3125 16.15V13.6Z" ></path>
        <path d="M2.625 0.85C2.625 0.380558 2.26123 1.65749e-07 1.8125 1.45229e-07C1.36377 1.24709e-07 1 0.380558 1 0.85L1 6.8C1 7.26944 1.36377 7.65 1.8125 7.65C2.26123 7.65 2.625 7.26944 2.625 6.8L2.625 0.85Z" ></path>
        <path d="M2.625 10.2C2.625 9.73056 2.26123 9.35 1.8125 9.35C1.36377 9.35 1 9.73056 1 10.2L1 16.15C1 16.6194 1.36377 17 1.8125 17C2.26123 17 2.625 16.6194 2.625 16.15L2.625 10.2Z" ></path>
        <path fill-rule="evenodd" clip-rule="evenodd" d="M14.45 7.14286C13.0417 7.14286 11.9 5.99159 11.9 4.57143C11.9 3.15127 13.0417 2 14.45 2C15.8583 2 17 3.15127 17 4.57143C17 5.99159 15.8583 7.14286 14.45 7.14286ZM14.45 5.42857C13.9806 5.42857 13.6 5.04482 13.6 4.57143C13.6 4.09804 13.9806 3.71429 14.45 3.71429C14.9194 3.71429 15.3 4.09804 15.3 4.57143C15.3 5.04482 14.9194 5.42857 14.45 5.42857Z" ></path>
        <path fill-rule="evenodd" clip-rule="evenodd" d="M5.95 11.4286C5.95 12.8487 7.09168 14 8.5 14C9.90833 14 11.05 12.8487 11.05 11.4286C11.05 10.0084 9.90833 8.85714 8.5 8.85714C7.09168 8.85714 5.95 10.0084 5.95 11.4286ZM7.65 11.4286C7.65 11.902 8.03056 12.2857 8.5 12.2857C8.96944 12.2857 9.35 11.902 9.35 11.4286C9.35 10.9552 8.96944 10.5714 8.5 10.5714C8.03056 10.5714 7.65 10.9552 7.65 11.4286Z" ></path>
        <path fill-rule="evenodd" clip-rule="evenodd" d="M0 8C-6.15599e-08 9.42016 1.14167 10.5714 2.55 10.5714C3.95833 10.5714 5.1 9.42016 5.1 8C5.1 6.57984 3.95833 5.42857 2.55 5.42857C1.14167 5.42857 6.15599e-08 6.57984 0 8ZM1.7 8C1.7 8.47339 2.08056 8.85714 2.55 8.85714C3.01944 8.85714 3.4 8.47339 3.4 8C3.4 7.52661 3.01944 7.14286 2.55 7.14286C2.08056 7.14286 1.7 7.52661 1.7 8Z" ></path>
    </symbol>
    <symbol xmlns="http://www.w3.org/2000/svg" viewBox="0 0 20 20" id="subscription">
        <path fill-rule="evenodd" clip-rule="evenodd" d="M10.5 17.3C14.2555 17.3 17.3 14.2555 17.3 10.5C17.3 6.74446 14.2555 3.7 10.5 3.7C6.74446 3.7 3.7 6.74446 3.7 10.5C3.7 14.2555 6.74446 17.3 10.5 17.3ZM10.5 19C15.1944 19 19 15.1944 19 10.5C19 5.80558 15.1944 2 10.5 2C5.80558 2 2 5.80558 2 10.5C2 15.1944 5.80558 19 10.5 19Z" ></path>
        <path d="M9.625 5.83333C9.625 5.3731 10.0168 5 10.5 5C10.9832 5 11.375 5.3731 11.375 5.83333C12.8247 5.83333 14 6.95262 14 8.33333C14 8.79357 13.6082 9.16667 13.125 9.16667C12.6418 9.16667 12.25 8.79357 12.25 8.33333C12.25 7.8731 11.8582 7.5 11.375 7.5H9.40049C9.04123 7.5 8.75 7.77737 8.75 8.11951C8.75 8.38617 8.92916 8.62291 9.19479 8.70724L12.3586 9.71162C13.3388 10.0228 14 10.8964 14 11.8805C14 13.1431 12.9253 14.1667 11.5995 14.1667H11.375C11.375 14.6269 10.9832 15 10.5 15C10.0168 15 9.625 14.6269 9.625 14.1667C8.17525 14.1667 7 13.0474 7 11.6667C7 11.2064 7.39175 10.8333 7.875 10.8333C8.35825 10.8333 8.75 11.2064 8.75 11.6667C8.75 12.1269 9.14175 12.5 9.625 12.5H11.5995C11.9588 12.5 12.25 12.2226 12.25 11.8805C12.25 11.6138 12.0708 11.3771 11.8052 11.2928L8.64139 10.2884C7.66117 9.97719 7 9.10356 7 8.11951C7 6.85689 8.07474 5.83333 9.40049 5.83333H9.625Z" ></path>
    </symbol>
    <symbol xmlns="http://www.w3.org/2000/svg" viewBox="0 0 20 20" id="arrow">
        <path d="M20 10C20 15.5226 15.5226 20 10 20C4.4774 20 -3.57628e-07 15.5226 -3.57628e-07 10C-3.57628e-07 4.4774 4.4774 0 10 0C15.5226 0 20 4.4774 20 10ZM7.62644 10L11.6976 5.92837C11.8358 5.78293 11.9117 5.58928 11.9091 5.38869C11.9065 5.18811 11.8257 4.99646 11.6838 4.85461C11.542 4.71277 11.3504 4.63194 11.1498 4.62937C10.9492 4.62681 10.7555 4.7027 10.6101 4.84087L5.99471 9.45625C5.85056 9.60049 5.76959 9.79607 5.76959 10C5.76959 10.2039 5.85056 10.3995 5.99471 10.5438L10.6101 15.1591C10.7555 15.2973 10.9492 15.3732 11.1498 15.3706C11.3504 15.3681 11.542 15.2872 11.6838 15.1454C11.8257 15.0035 11.9065 14.8119 11.9091 14.6113C11.9117 14.4107 11.8358 14.2171 11.6976 14.0716L7.62644 10Z" fill="#5871F2"></path>
    </symbol>
    <symbol xmlns="http://www.w3.org/2000/svg" viewBox="0 0 20 20" id="logOut">
        <path d="M6.52941 10C6.52941 9.83123 6.59758 9.66936 6.71893 9.55002C6.84028 9.43068 7.00486 9.36364 7.17647 9.36364H13V5.22727C13 3.95455 11.6335 3 10.4118 3H4.26471C3.66427 3.00063 3.0886 3.23549 2.66403 3.65305C2.23945 4.07061 2.00064 4.63676 2 5.22727V14.7727C2.00064 15.3632 2.23945 15.9294 2.66403 16.3469C3.0886 16.7645 3.66427 16.9994 4.26471 17H10.7353C11.3357 16.9994 11.9114 16.7645 12.336 16.3469C12.7605 15.9294 12.9994 15.3632 13 14.7727V10.6364H7.17647C7.00486 10.6364 6.84028 10.5693 6.71893 10.45C6.59758 10.3306 6.52941 10.1688 6.52941 10Z" fill="white"></path>
        <path d="M18.8049 9.0771L15.4714 6.16043C15.3453 6.05565 15.1775 5.9981 15.0036 6.00005C14.8298 6.002 14.6637 6.06329 14.5407 6.17085C14.4178 6.27842 14.3478 6.42375 14.3455 6.57587C14.3433 6.72798 14.4091 6.87483 14.5288 6.98512L16.7239 8.90611H13V10.0728H16.7239L14.5288 11.9938C14.4643 12.0474 14.4127 12.1118 14.3771 12.1831C14.3415 12.2545 14.3225 12.3313 14.3214 12.4092C14.3202 12.4871 14.3369 12.5643 14.3705 12.6364C14.404 12.7086 14.4537 12.7741 14.5166 12.8291C14.5795 12.8842 14.6544 12.9277 14.7368 12.957C14.8193 12.9864 14.9076 13.0009 14.9966 13C15.0856 12.999 15.1734 12.9824 15.2549 12.9512C15.3365 12.92 15.4101 12.8749 15.4714 12.8185L18.8049 9.90178C18.9298 9.7924 19 9.64408 19 9.48944C19 9.3348 18.9298 9.18648 18.8049 9.0771V9.0771Z" fill="white"></path>
    </symbol>
    <symbol xmlns="http://www.w3.org/2000/svg" viewBox="0 0 23 19" id="telegram">
        <path d="M20.5726 0.80644C20.5726 0.80644 22.5961 0.0173777 22.4275 1.93367C22.3713 2.72275 21.8654 5.48447 21.4719 8.47165L20.1229 17.3205C20.1229 17.3205 20.0105 18.6168 18.9986 18.8422C17.9868 19.0676 16.4692 18.0532 16.1881 17.8277C15.9632 17.6586 11.9723 15.1223 10.567 13.8824C10.1735 13.5442 9.7238 12.8679 10.6232 12.0788L16.5254 6.44264C17.1999 5.76629 17.8744 4.18816 15.0639 6.10447L7.19432 11.4588C7.19432 11.4588 6.29495 12.0224 4.60865 11.5152L0.954907 10.388C0.954907 10.388 -0.394161 9.54254 1.9105 8.69707C7.53161 6.04806 14.4456 3.3427 20.5726 0.80644Z" ></path>
    </symbol>
    <symbol xmlns="http://www.w3.org/2000/svg" viewBox="0 0 25 19" id="youtube">
        <path fill-rule="evenodd" clip-rule="evenodd" d="M9.98555 12.7326V5.71787C12.4758 6.88966 14.4045 8.02163 16.6856 9.24204C14.8042 10.2854 12.4758 11.4561 9.98555 12.7326ZM23.8638 2.2291C23.4342 1.66315 22.7021 1.22261 21.9226 1.07676C19.6316 0.641699 5.33873 0.640461 3.04894 1.07676C2.42389 1.19394 1.8673 1.47717 1.38917 1.91722C-0.625453 3.78709 0.00583272 13.8146 0.491434 15.4389C0.695634 16.142 0.959613 16.6491 1.29206 16.9819C1.72039 17.4219 2.30683 17.7249 2.98045 17.8608C4.86682 18.251 14.585 18.4692 21.8827 17.9194C22.5551 17.8022 23.1503 17.4895 23.6197 17.0307C25.4824 15.1683 25.3554 4.57767 23.8638 2.2291Z" ></path>
    </symbol>
    <symbol xmlns="http://www.w3.org/2000/svg" viewBox="0 0 25 21" id="twiter">
        <path fill-rule="evenodd" clip-rule="evenodd" d="M7.8625 20.4997C17.2962 20.4997 22.4563 12.8042 22.4563 6.13146C22.4563 5.9124 22.4562 5.69498 22.4412 5.47838C23.445 4.76458 24.3113 3.87832 25 2.86425C24.065 3.27283 23.0712 3.54079 22.055 3.65892C23.125 3.02759 23.9262 2.03572 24.31 0.865344C23.3025 1.45361 22.2012 1.86878 21.0525 2.09154C19.11 0.058453 15.8613 -0.0400507 13.795 1.87242C12.4638 3.10556 11.8975 4.94415 12.3112 6.69786C8.1875 6.49358 4.345 4.57621 1.74 1.42198C0.37875 3.7295 1.075 6.68036 3.32875 8.1621C2.5125 8.13871 1.71375 7.92234 1 7.53099V7.59508C1.00125 9.99861 2.7225 12.0682 5.115 12.5444C4.36 12.7475 3.5675 12.7769 2.8 12.6305C3.47125 14.6882 5.3975 16.0976 7.59125 16.1382C5.775 17.5436 3.53125 18.3068 1.22125 18.3043C0.81375 18.3031 0.40625 18.2797 0 18.2317C2.34625 19.7134 5.075 20.4998 7.8625 20.4961" ></path>
    </symbol>
    <symbol xmlns="http://www.w3.org/2000/svg" viewBox="0 0 15 15" id="support">
        <path d="M7.5 0C3.35938 0 0 3.35938 0 7.5C0 11.6406 3.35938 15 7.5 15C11.6406 15 15 11.6406 15 7.5C15 3.35938 11.6406 0 7.5 0ZM7.26562 11.875C7.11111 11.875 6.96006 11.8292 6.83159 11.7433C6.70311 11.6575 6.60298 11.5355 6.54384 11.3927C6.48471 11.25 6.46924 11.0929 6.49939 10.9413C6.52953 10.7898 6.60394 10.6506 6.7132 10.5413C6.82246 10.4321 6.96166 10.3577 7.11321 10.3275C7.26476 10.2974 7.42184 10.3128 7.5646 10.372C7.70735 10.4311 7.82937 10.5312 7.91521 10.6597C8.00106 10.7882 8.04688 10.9392 8.04688 11.0938C8.04688 11.301 7.96457 11.4997 7.81805 11.6462C7.67154 11.7927 7.47283 11.875 7.26562 11.875V11.875ZM8.57188 7.89062C7.93867 8.31563 7.85156 8.70508 7.85156 9.0625C7.85156 9.20754 7.79395 9.34664 7.69139 9.4492C7.58883 9.55176 7.44973 9.60938 7.30469 9.60938C7.15965 9.60938 7.02055 9.55176 6.91799 9.4492C6.81543 9.34664 6.75781 9.20754 6.75781 9.0625C6.75781 8.20664 7.15156 7.52617 7.96172 6.98203C8.71484 6.47656 9.14062 6.15625 9.14062 5.45195C9.14062 4.97305 8.86719 4.60938 8.30117 4.34023C8.16797 4.27695 7.87148 4.21523 7.50664 4.21953C7.04883 4.22539 6.69336 4.33477 6.41953 4.55508C5.90312 4.9707 5.85938 5.42305 5.85938 5.42969C5.85591 5.5015 5.83834 5.57194 5.80766 5.63696C5.77697 5.70199 5.73378 5.76033 5.68055 5.80866C5.62732 5.857 5.56509 5.89437 5.49742 5.91866C5.42974 5.94294 5.35795 5.95366 5.28613 5.9502C5.21432 5.94673 5.14388 5.92916 5.07886 5.89848C5.01384 5.86779 4.95549 5.82461 4.90716 5.77137C4.85882 5.71814 4.82145 5.65592 4.79716 5.58824C4.77288 5.52057 4.76216 5.44877 4.76562 5.37695C4.76992 5.28203 4.83594 4.42695 5.7332 3.70508C6.19844 3.33086 6.79023 3.13633 7.49102 3.12773C7.98711 3.12188 8.45312 3.20586 8.76914 3.35508C9.71484 3.80234 10.2344 4.54805 10.2344 5.45195C10.2344 6.77344 9.35117 7.3668 8.57188 7.89062Z" ></path>
    </symbol>
    <symbol xmlns="http://www.w3.org/2000/svg" viewBox="0 0 14 19" id="arbitrage">
        <path d="M4.56668 19C4.46006 19.0001 4.35471 18.9769 4.25804 18.9322C4.16136 18.8874 4.07571 18.8222 4.0071 18.7409C3.93849 18.6597 3.88858 18.5645 3.86089 18.4621C3.83319 18.3596 3.82838 18.2523 3.84679 18.1478V18.1435L4.96481 12.0338H0.636302C0.516155 12.0338 0.398467 11.9999 0.296849 11.9361C0.195232 11.8724 0.113836 11.7812 0.0620781 11.6733C0.0103198 11.5654 -0.00968693 11.4452 0.00437231 11.3264C0.0184316 11.2077 0.0659821 11.0953 0.141524 11.0023L8.8586 0.278358C8.95782 0.153015 9.09557 0.0634638 9.25077 0.0233971C9.40597 -0.0166695 9.57009 -0.00504584 9.71803 0.0564908C9.86596 0.118027 9.98958 0.22609 10.07 0.364153C10.1503 0.502216 10.1831 0.662681 10.1632 0.821008C10.1632 0.832883 10.16 0.844361 10.158 0.856235L9.03599 6.96749H13.3637C13.4838 6.9675 13.6015 7.00136 13.7032 7.06515C13.8048 7.12894 13.8862 7.22006 13.9379 7.32796C13.9897 7.43586 14.0097 7.55614 13.9956 7.67488C13.9816 7.79363 13.934 7.90598 13.8585 7.99896L5.14021 18.7229C5.07171 18.8091 4.98456 18.8787 4.88526 18.9267C4.78596 18.9747 4.67706 18.9997 4.56668 19V19Z" ></path>
    </symbol>
    <symbol xmlns="http://www.w3.org/2000/svg" viewBox="0 0 20 19" id="news">
        <g filter="url(#filter0_d_201_845)">
            <path d="M16.1156 6.65196C15.6123 5.33046 14.8785 4.10654 13.9474 3.03589C12.3362 1.19129 10.2177 0 8.55 0C8.45084 7.31378e-05 8.35301 0.0225833 8.264 0.0658076C8.17499 0.109032 8.09716 0.171824 8.03647 0.249379C7.97577 0.326933 7.93382 0.417193 7.91383 0.51325C7.89384 0.609307 7.89633 0.708615 7.92113 0.803571C8.48459 2.93304 7.31663 4.70371 6.08041 6.57804C5.05625 8.13054 4 9.73406 4 11.5714C4 15.116 6.91606 18 10.5 18C14.0839 18 17 15.116 17 11.5714C17 9.8317 16.7026 8.17674 16.1156 6.65196ZM11.8134 15.5367C11.3937 15.9786 10.8677 16.0714 10.5 16.0714C10.1323 16.0714 9.60625 15.9786 9.18659 15.5367C8.76694 15.0947 8.55 14.3936 8.55 13.5C8.55 12.4899 8.90831 11.7209 9.25444 10.9776C9.45553 10.5461 9.66069 10.1069 9.78256 9.63683C9.7955 9.5857 9.82096 9.53849 9.85669 9.49938C9.89242 9.46027 9.93733 9.43045 9.98746 9.41255C10.0376 9.39465 10.0914 9.38921 10.1442 9.39672C10.1969 9.40424 10.247 9.42446 10.29 9.45562C10.6615 9.73995 10.9919 10.0733 11.2719 10.4464C12.01 11.4107 12.45 12.5526 12.45 13.5C12.45 14.3936 12.2298 15.0979 11.8134 15.5367Z"></path>
        </g>
        <defs>
            <filter id="filter0_d_201_845" x="0" y="0" width="21" height="26" filterUnits="userSpaceOnUse" color-interpolation-filters="sRGB">
                <feFlood flood-opacity="0" result="BackgroundImageFix"></feFlood>
                <feColorMatrix in="SourceAlpha" type="matrix" values="0 0 0 0 0 0 0 0 0 0 0 0 0 0 0 0 0 0 127 0" result="hardAlpha"></feColorMatrix>
                <feOffset dy="4"></feOffset>
                <feGaussianBlur stdDeviation="2"></feGaussianBlur>
                <feComposite in2="hardAlpha" operator="out"></feComposite>
                <feColorMatrix type="matrix" values="0 0 0 0 0 0 0 0 0 0 0 0 0 0 0 0 0 0 0.25 0"></feColorMatrix>
                <feBlend mode="normal" in2="BackgroundImageFix" result="effect1_dropShadow_201_845"></feBlend>
                <feBlend mode="normal" in="SourceGraphic" in2="effect1_dropShadow_201_845" result="shape"></feBlend>
            </filter>
        </defs>
    </symbol>
    <symbol xmlns="http://www.w3.org/2000/svg" viewBox="0 0 14 8" id="arrowDown">
        <path
                d="M12.625 1.1875L7 6.8125L1.375 1.1875" stroke-width="1.875" stroke-linecap="round" stroke-linejoin="round"></path>
    </symbol>
    <symbol xmlns="http://www.w3.org/2000/svg" viewBox="0 0 10 8" id="success">
        <path d="M9 1L3.5 7L1 4.27273"  stroke-width="2" stroke-linecap="round" stroke-linejoin="round"></path>
    </symbol>
    <symbol fill="none" xmlns="http://www.w3.org/2000/svg" viewBox="0 0 116 147" id="arrowWithLine">
        <g clip-path="url(#clip0_258_500)">
            <path d="M5.08781 146.038C5.41099 147.094 6.52923 147.688 7.58546 147.365L24.7978 142.099C25.854 141.776 26.4483 140.657 26.1251 139.601C25.8019 138.545 24.6837 137.951 23.6275 138.274L8.32761 142.955L3.64628 127.655C3.3231 126.599 2.20487 126.005 1.14863 126.328C0.0923998 126.651 -0.501855 127.769 -0.178677 128.826L5.08781 146.038ZM109.317 -8.6931C115.267 20.8409 114.204 40.1477 108.913 53.7393C103.652 67.2556 94.0914 75.4222 82.279 82.4406C58.7488 96.4212 25.8282 105.762 5.23419 144.514L8.76639 146.391C28.6667 108.944 59.8532 100.418 84.3222 85.8794C96.5094 78.6383 106.922 69.8825 112.641 55.1903C118.331 40.5736 119.256 20.3861 113.238 -9.48314L109.317 -8.6931Z" fill="#5871F2"></path>
        </g>
        <defs>
            <clipPath id="clip0_258_500">
                <rect width="116" height="147" fill="white"></rect>
            </clipPath>
        </defs>
    </symbol>
    <symbol fill="none" xmlns="http://www.w3.org/2000/svg" viewBox="0 0 18 18" id="error">
        <path d="M7.28618 12.3043L7.28629 12.3044L7.29532 12.2954L9 10.591L10.7008 12.2915C10.8032 12.3979 10.9256 12.4831 11.0609 12.5422C11.1985 12.6023 11.3468 12.6343 11.4969 12.6362C11.6471 12.6381 11.7961 12.61 11.9352 12.5534C12.0743 12.4968 12.2006 12.413 12.3068 12.3068C12.413 12.2006 12.4968 12.0743 12.5534 11.9352C12.61 11.7961 12.6381 11.6471 12.6362 11.4969C12.6343 11.3468 12.6023 11.1985 12.5422 11.0609C12.4831 10.9256 12.3979 10.8032 12.2915 10.7008L10.591 9L12.2954 7.29532L12.2955 7.29543L12.3043 7.28618C12.5064 7.07349 12.6173 6.79027 12.6136 6.49691C12.6098 6.20355 12.4916 5.92327 12.2842 5.71582C12.0767 5.50837 11.7964 5.39016 11.5031 5.38641C11.2097 5.38265 10.9265 5.49364 10.7138 5.69571L10.7137 5.6956L10.7047 5.70462L9 7.40898L7.29532 5.70462L7.29543 5.7045L7.28618 5.69571C7.07349 5.49364 6.79027 5.38265 6.49691 5.38641C6.20356 5.39016 5.92327 5.50837 5.71582 5.71582C5.50837 5.92327 5.39016 6.20356 5.38641 6.49691C5.38265 6.79027 5.49364 7.07349 5.69571 7.28618L5.6956 7.28629L5.70462 7.29532L7.40898 9L5.70462 10.7047L5.7045 10.7046L5.69571 10.7138C5.49364 10.9265 5.38265 11.2097 5.38641 11.5031C5.39016 11.7964 5.50837 12.0767 5.71582 12.2842C5.92327 12.4916 6.20355 12.6098 6.49691 12.6136C6.79027 12.6173 7.07349 12.5064 7.28618 12.3043ZM1.375 9C1.375 4.79606 4.79606 1.375 9 1.375C13.2039 1.375 16.625 4.79606 16.625 9C16.625 13.2039 13.2039 16.625 9 16.625C4.79606 16.625 1.375 13.2039 1.375 9Z" fill="#FF4040" stroke="black"></path>
    </symbol>
    <symbol  xmlns="http://www.w3.org/2000/svg" viewBox="0 0 14 14" id="cross">
        <path d="M13 1L1 13M1 1L13 13"  stroke-width="1.5" stroke-linecap="round"></path>
    </symbol>
    <symbol  xmlns="http://www.w3.org/2000/svg" viewBox="0 0 14 14" id="plus">
        <path d="M7 1.375V12.625"  stroke-width="1.25" stroke-linecap="round" stroke-linejoin="round"></path>
        <path d="M12.625 7H1.375"  stroke-width="1.25" stroke-linecap="round" stroke-linejoin="round"></path>
    </symbol>
    <symbol xmlns="http://www.w3.org/2000/svg" viewBox="0 0 16 18" id="trush">
        <path d="M10.8125 5.875L10.5 14.625"  stroke-width="1.25" stroke-linecap="round" stroke-linejoin="round"></path>
        <path d="M5.1875 5.875L5.5 14.625"  stroke-width="1.25" stroke-linecap="round" stroke-linejoin="round"></path>
        <path d="M8 5.875V14.625"  stroke-width="1.25" stroke-linecap="round" stroke-linejoin="round"></path>
        <path d="M5.5 3.375V1.8125C5.49964 1.68929 5.52365 1.56722 5.57063 1.45331C5.61762 1.33941 5.68666 1.23591 5.77379 1.14879C5.86091 1.06166 5.96441 0.992618 6.07831 0.945632C6.19222 0.898646 6.31429 0.874643 6.4375 0.875004H9.5625C9.68572 0.874643 9.80779 0.898646 9.9217 0.945632C10.0356 0.992618 10.1391 1.06166 10.2262 1.14879C10.3133 1.23591 10.3824 1.33941 10.4294 1.45331C10.4764 1.56722 10.5004 1.68929 10.5 1.8125V3.375"  stroke-width="1.25" stroke-linecap="round" stroke-linejoin="round"></path>
        <path d="M1.125 3.375H14.875"  stroke-width="1.25" stroke-miterlimit="10" stroke-linecap="round"></path>
        <path d="M2.375 3.375L3.15625 15.875C3.19336 16.5973 3.71875 17.125 4.40625 17.125H11.5938C12.284 17.125 12.7996 16.5973 12.8438 15.875L13.625 3.375"  stroke-width="1.25" stroke-linecap="round" stroke-linejoin="round"></path>
    </symbol>
    <symbol  xmlns="http://www.w3.org/2000/svg" viewBox="0 0 16 18" id="notification">
        <path d="M10.5 14V14.625C10.5 15.288 10.2366 15.9239 9.76777 16.3928C9.29893 16.8616 8.66304 17.125 8 17.125C7.33696 17.125 6.70107 16.8616 6.23223 16.3928C5.76339 15.9239 5.5 15.288 5.5 14.625V14" stroke-width="1.25" stroke-linecap="round" stroke-linejoin="round"></path>
        <path d="M14.7062 12.7277C13.7031 11.5 12.9949 10.875 12.9949 7.49023C12.9949 4.39063 11.4121 3.28633 10.1093 2.75C9.93628 2.67891 9.77339 2.51562 9.72065 2.33789C9.49214 1.56016 8.85151 0.875 7.99995 0.875C7.14839 0.875 6.50737 1.56055 6.2812 2.33867C6.22846 2.51836 6.06557 2.67891 5.89253 2.75C4.58823 3.28711 3.00698 4.3875 3.00698 7.49023C3.00503 10.875 2.29682 11.5 1.2937 12.7277C0.878074 13.2363 1.24214 14 1.96909 14H14.0347C14.7578 14 15.1195 13.234 14.7062 12.7277Z" stroke-width="1.25" stroke-linecap="round" stroke-linejoin="round"></path>
    </symbol>
    <symbol  xmlns="http://www.w3.org/2000/svg" viewBox="0 0 20 18" id="star">
        <path d="M18.75 7.125H12.0312L10 0.875L7.96875 7.125H1.25L6.71875 10.875L4.60938 17.125L10 13.2188L15.3906 17.125L13.2812 10.875L18.75 7.125Z"  stroke-width="1.25" stroke-linejoin="round"></path>
    </symbol>
    <symbol  xmlns="http://www.w3.org/2000/svg" viewBox="0 0 30 20" id="eye">
        <path d="M28.9816 9.62031C28.9406 9.52773 27.948 7.32578 25.7414 5.11914C22.8012 2.17891 19.0875 0.625 15 0.625C10.9125 0.625 7.19882 2.17891 4.25858 5.11914C2.05194 7.32578 1.05468 9.53125 1.01835 9.62031C0.965043 9.74021 0.9375 9.86996 0.9375 10.0012C0.9375 10.1324 0.965043 10.2621 1.01835 10.382C1.05936 10.4746 2.05194 12.6754 4.25858 14.882C7.19882 17.8211 10.9125 19.375 15 19.375C19.0875 19.375 22.8012 17.8211 25.7414 14.882C27.948 12.6754 28.9406 10.4746 28.9816 10.382C29.0349 10.2621 29.0625 10.1324 29.0625 10.0012C29.0625 9.86996 29.0349 9.74021 28.9816 9.62031ZM15 14.6875C14.0729 14.6875 13.1666 14.4126 12.3958 13.8975C11.6249 13.3824 11.0241 12.6504 10.6693 11.7938C10.3145 10.9373 10.2217 9.9948 10.4026 9.08551C10.5834 8.17623 11.0299 7.341 11.6854 6.68544C12.341 6.02988 13.1762 5.58344 14.0855 5.40257C14.9948 5.2217 15.9373 5.31453 16.7938 5.66931C17.6503 6.0241 18.3824 6.62491 18.8975 7.39576C19.4126 8.16662 19.6875 9.0729 19.6875 10C19.6875 11.2432 19.1936 12.4355 18.3146 13.3146C17.4355 14.1936 16.2432 14.6875 15 14.6875Z" ></path>
    </symbol>
    <symbol  xmlns="http://www.w3.org/2000/svg" viewBox="0 0 20 20" id="refresh">
        <path d="M12.5 4.6875L14.375 6.5625L12.5 8.4375"  stroke-width="1.25" stroke-linecap="round" stroke-linejoin="round"></path>
        <path d="M13.75 6.5625H5.625C4.79696 6.56497 4.00354 6.89501 3.41802 7.48052C2.83251 8.06604 2.50247 8.85946 2.5 9.6875V10.3125"  stroke-width="1.25" stroke-linecap="round" stroke-linejoin="round"></path>
        <path d="M7.5 15.3125L5.625 13.4375L7.5 11.5625"  stroke-width="1.25" stroke-linecap="round" stroke-linejoin="round"></path>
        <path d="M6.25 13.4375H14.375C15.203 13.435 15.9965 13.105 16.582 12.5195C17.1675 11.934 17.4975 11.1405 17.5 10.3125V9.6875"  stroke-width="1.25" stroke-linecap="round" stroke-linejoin="round"></path>
    </symbol>
    <symbol fill="none" xmlns="http://www.w3.org/2000/svg" viewBox="0 0 21 17" id="email">
        <path d="M20.0544 0.631836H0.945412C0.750488 0.631836 0.563547 0.707199 0.425715 0.841346C0.287883 0.975493 0.210449 1.15743 0.210449 1.34715V15.6534C0.210449 15.8431 0.287883 16.025 0.425715 16.1592C0.563547 16.2933 0.750488 16.3687 0.945412 16.3687H20.0544C20.2494 16.3687 20.4363 16.2933 20.5741 16.1592C20.712 16.025 20.7894 15.8431 20.7894 15.6534V1.34715C20.7894 1.15743 20.712 0.975493 20.5741 0.841346C20.4363 0.707199 20.2494 0.631836 20.0544 0.631836ZM10.951 9.78022C10.822 9.87781 10.6633 9.93079 10.4999 9.93079C10.3365 9.93079 10.1778 9.87781 10.0488 9.78022L2.85402 4.33402L3.75618 3.20472L10.4999 8.30936L17.2437 3.20472L18.1458 4.33402L10.951 9.78022Z" fill="white"></path>
    </symbol>
</svg>