<svg width="0" height="0" class="hidden">
    <symbol xmlns="http://www.w3.org/2000/svg" viewBox="0 0 26 14" id="arrowIcon">
        <path fill-rule="evenodd" clip-rule="evenodd" d="M0.380001 0.465471C-0.126667 0.980778 -0.126667 1.81522 0.380001 2.32921L11.1226 13.227C12.1373 14.2577 13.7833 14.2577 14.7979 13.227L25.6198 2.25029C26.1213 1.74024 26.1278 0.916227 25.6328 0.399597C25.1274 -0.127571 24.2947 -0.133961 23.7815 0.385304L13.8794 10.4317C13.3715 10.947 12.5491 10.947 12.0411 10.4317L2.21699 0.465471C1.71033 -0.0498475 0.887967 -0.0498475 0.380001 0.465471Z" ></path>
    </symbol>
    <symbol fill="none" xmlns="http://www.w3.org/2000/svg" viewBox="0 0 50 50" id="avatarIcon">
        <path d="M25.3845 9.23077C21.7748 9.23077 18.8461 12.1841 18.8461 15.8242C18.8461 19.4643 21.7748 22.4176 25.3845 22.4176C28.9943 22.4176 31.923 19.4643 31.923 15.8242C31.923 12.1841 28.9943 9.23077 25.3845 9.23077ZM22.1153 24.6154C16.6836 24.6154 12.3076 29.0282 12.3076 34.5055V35.6044C12.3076 38.0426 14.2487 40 16.6666 40H34.1025C36.5204 40 38.4615 38.0426 38.4615 35.6044V34.5055C38.4615 29.0282 34.0855 24.6154 28.6538 24.6154H22.1153Z" fill="white"></path>
        <circle cx="25" cy="25" r="23.5" stroke="white" stroke-width="3"></circle>
    </symbol>
    <symbol xmlns="http://www.w3.org/2000/svg" viewBox="0 0 34 34" id="calendarIcon">
        <path d="M2 13.6667H32M8.66667 2V5.33333M25.3333 2V5.33333M7.33333 32H26.6667C28.5335 32 29.467 32 30.18 31.6367C30.8072 31.3172 31.3172 30.8072 31.6367 30.18C32 29.467 32 28.5335 32 26.6667V10.6667C32 8.79982 32 7.8664 31.6367 7.15337C31.3172 6.52615 30.8072 6.01622 30.18 5.69665C29.467 5.33333 28.5335 5.33333 26.6667 5.33333H7.33333C5.4665 5.33333 4.53307 5.33333 3.82003 5.69665C3.19282 6.01622 2.68288 6.52615 2.36332 7.15337C2 7.8664 2 8.79982 2 10.6667V26.6667C2 28.5335 2 29.467 2.36332 30.18C2.68288 30.8072 3.19282 31.3172 3.82003 31.6367C4.53307 32 5.46648 32 7.33333 32Z" stroke="#28292B" stroke-width="3" stroke-linecap="round" stroke-linejoin="round"></path>
    </symbol>
    <symbol xmlns="http://www.w3.org/2000/svg" viewBox="0 0 36 36" id="crossIcon">
        <path d="M35.4143 0.585699C34.6335 -0.195233 33.3673 -0.195233 32.5864 0.585699L18 15.1721L3.41366 0.585699C2.63275 -0.195233 1.36661 -0.195233 0.585699 0.585699C-0.195233 1.36661 -0.195233 2.63274 0.585699 3.41365L15.172 18L0.58574 32.5862C-0.195193 33.3673 -0.195193 34.6333 0.58574 35.4143C1.36665 36.1952 2.63279 36.1952 3.4137 35.4143L18 20.8279L32.5864 35.4143C33.3673 36.1952 34.6335 36.1952 35.4143 35.4143C36.1952 34.6333 36.1952 33.3673 35.4143 32.5864L20.8279 18L35.4143 3.41365C36.1952 2.63274 36.1952 1.36661 35.4143 0.585699Z" ></path>
    </symbol>
    <symbol xmlns="http://www.w3.org/2000/svg" viewBox="0 0 30 34" id="deleteIcon">
        <path d="M11.75 17V25.3333" stroke="white" stroke-width="3" stroke-linecap="round" stroke-linejoin="round"></path>
        <path d="M18.25 17V25.3333" stroke="white" stroke-width="3" stroke-linecap="round" stroke-linejoin="round"></path>
        <path d="M2 8.66669H28" stroke="white" stroke-width="3" stroke-linecap="round" stroke-linejoin="round"></path>
        <path d="M5.25 13.6666V27C5.25 29.7615 7.43262 32 10.125 32H19.875C22.5675 32 24.75 29.7615 24.75 27V13.6666" stroke="white" stroke-width="3" stroke-linecap="round" stroke-linejoin="round"></path>
        <path d="M10.125 5.33333C10.125 3.49238 11.5801 2 13.375 2H16.625C18.42 2 19.875 3.49238 19.875 5.33333V8.66667H10.125V5.33333Z" stroke="white" stroke-width="3" stroke-linecap="round" stroke-linejoin="round"></path>
    </symbol>
    <symbol xmlns="http://www.w3.org/2000/svg" viewBox="0 0 22 22" id="editIcon">
        <path d="M19 15V19C19 19.5304 18.7893 20.0391 18.4142 20.4142C18.0391 20.7893 17.5304 21 17 21H3C2.46957 21 1.96086 20.7893 1.58579 20.4142C1.21071 20.0391 1 19.5304 1 19V5C1 4.46957 1.21071 3.96086 1.58579 3.58579C1.96086 3.21071 2.46957 3 3 3H7" stroke="#2A99E8" stroke-width="2" stroke-linecap="round" stroke-linejoin="round"></path>
        <path d="M11.5 14.8L21 5.2L16.8 1L7.3 10.5L7 15L11.5 14.8Z" stroke="#2A99E8" stroke-width="2" stroke-linecap="round" stroke-linejoin="round"></path>
    </symbol>
    <symbol xmlns="http://www.w3.org/2000/svg" viewBox="0 0 34 40" id="notificationIcon">
        <path d="M33.2852 27.617C33.1384 27.4384 32.9942 27.2598 32.8526 27.0875C30.9064 24.7116 29.7289 23.2777 29.7289 16.5518C29.7289 13.0696 28.9035 10.2125 27.2766 8.06964C26.0769 6.48661 24.4553 5.28571 22.318 4.39821C22.2905 4.38277 22.2659 4.36252 22.2454 4.33839C21.4767 1.74018 19.3729 0 17.0002 0C14.6275 0 12.5247 1.74018 11.7559 4.33571C11.7354 4.35895 11.7112 4.37857 11.6842 4.39375C6.69646 6.46607 4.27247 10.442 4.27247 16.5491C4.27247 23.2777 3.09674 24.7116 1.14869 27.0848C1.00715 27.2571 0.862946 27.4321 0.716091 27.6143C0.336745 28.076 0.0963979 28.6377 0.0234943 29.233C-0.0494093 29.8283 0.048182 30.4322 0.304719 30.9732C0.850561 32.1339 2.0139 32.8545 3.34179 32.8545H30.6684C31.9901 32.8545 33.1455 32.1348 33.6931 30.9795C33.9507 30.4383 34.0492 29.8339 33.9769 29.238C33.9047 28.642 33.6646 28.0794 33.2852 27.617Z" ></path>
        <path d="M17.0003 40C18.2787 39.999 19.533 39.6487 20.6301 38.9865C21.7272 38.3242 22.6263 37.3746 23.2319 36.2384C23.2605 36.184 23.2745 36.123 23.2728 36.0614C23.2711 35.9998 23.2537 35.9398 23.2221 35.887C23.1906 35.8343 23.1461 35.7906 23.093 35.7604C23.0398 35.7301 22.9798 35.7142 22.9187 35.7143H11.0836C11.0225 35.7141 10.9624 35.7298 10.9091 35.76C10.8558 35.7902 10.8112 35.8338 10.7796 35.8866C10.748 35.9394 10.7304 35.9995 10.7287 36.0612C10.7269 36.1228 10.741 36.1839 10.7696 36.2384C11.3752 37.3745 12.2741 38.324 13.371 38.9863C14.468 39.6485 15.7221 39.9988 17.0003 40Z" ></path>
    </symbol>

    <symbol fill="none" xmlns="http://www.w3.org/2000/svg" viewBox="0 0 108 108" id="emptyTableIcon">
        <path d="M46.5 69L61.5 54M61.5 69L46.5 54" stroke="#2A99E8" stroke-width="8" stroke-linecap="round"></path>
        <path d="M104 52.9895C104 39.8277 104 33.2468 100.152 28.9692C99.799 28.5757 99.4245 28.2012 99.031 27.8473C94.753 24 88.1725 24 75.0105 24H73.142C67.3735 24 64.4895 24 61.802 23.2339C60.3255 22.813 58.902 22.2235 57.5605 21.4771C55.1185 20.1184 53.079 18.0789 49 14L46.2485 11.2487C44.8815 9.88165 44.198 9.19805 43.4797 8.60255C40.3826 6.0352 36.5832 4.46145 32.5778 4.0869C31.6488 4 30.6821 4 28.7487 4C24.3361 4 22.1297 4 20.2919 4.34675C12.2015 5.8732 5.8732 12.2015 4.34675 20.2919C4 22.1297 4 24.3361 4 28.7487M103.957 74C103.777 86.398 102.857 93.4265 98.142 98.142C92.2845 104 82.856 104 64 104H44C25.1438 104 15.7158 104 9.85785 98.142C4 92.2845 4 82.856 4 64V49" stroke="#2A99E8" stroke-width="8" stroke-linecap="round"></path>
    </symbol>
</svg>